<?xml version="1.0" encoding="UTF-8" standalone="no"?>
<!DOCTYPE svg PUBLIC "-//W3C//DTD SVG 1.1//EN" "http://www.w3.org/Graphics/SVG/1.1/DTD/svg11.dtd">
<svg width="100%" height="100%" viewBox="0 0 276 312" version="1.1" xmlns="http://www.w3.org/2000/svg" xmlns:xlink="http://www.w3.org/1999/xlink" xml:space="preserve" xmlns:serif="http://www.serif.com/" style="fill-rule:evenodd;clip-rule:evenodd;stroke-linejoin:round;stroke-miterlimit:2;">
    <g transform="matrix(1,0,0,1,-207.99562,-672.248072)">
        <g transform="matrix(1,0,0,1,205.036507,669.811377)">
            <path d="M79.485,313.969C18.71,311.843 2.95,269.063 2.959,240.489C2.995,122.462 225.851,123.749 252.577,77.548C273.667,41.09 182.129,26.457 70.341,85.199C41.464,100.373 30.567,112.314 30.512,107.498C30.435,100.793 29.587,26.559 30.85,23.676C31.833,21.434 121.887,-5.987 199.562,5.041C206.69,6.053 267.41,14.674 276.668,51.453C293.077,116.642 194.953,133.141 127.758,175.908C77.614,207.823 91.755,249.581 130.507,249.817C195.84,250.215 250.928,125.895 251.422,125.425C252.914,124.008 271.236,124.539 271.848,125.018C272.802,125.763 272.696,126.067 272.696,270.5C272.696,306.512 273.147,308.067 270.479,308.061C242.884,308.002 242.898,307.996 240.5,307.996C183.354,307.996 181.881,308.237 182.197,306.49C186.677,281.707 242.759,199.132 254.171,168.421C254.76,166.837 249.145,164.698 247.509,164.79C243.496,165.016 225.275,217.811 180.519,265.518C133.566,315.565 91.391,314.063 79.485,313.969Z" style="fill:rgb(10,25,47);fill-opacity:1;"/>
        </g>
    </g>
</svg>
